<svg width="235" height="26" viewBox="0 0 235 26" fill="none" xmlns="http://www.w3.org/2000/svg">
<path fill-rule="evenodd" clip-rule="evenodd" d="M74.7514 23.3595C74.7514 23.8664 74.4961 24.1198 73.9854 24.1198H64.9885C64.7712 24.1198 64.5946 24.0565 64.4588 23.9298C64.323 23.803 64.2551 23.624 64.2551 23.3926C64.2551 23.1942 64.3013 23.0344 64.3936 22.9132C64.486 22.792 64.6299 22.6928 64.8255 22.6157L65.5264 22.4008C65.7002 22.3457 65.836 22.241 65.9338 22.0868C66.0316 21.9325 66.0805 21.7121 66.0805 21.4256V11.8719C66.0805 11.7176 66.0425 11.5882 65.9664 11.4835C65.8904 11.3788 65.7491 11.2824 65.5427 11.1942L64.5974 10.8802C64.3474 10.759 64.1682 10.6295 64.0595 10.4917C63.9508 10.354 63.8965 10.186 63.8965 9.9876C63.8965 9.78926 63.9644 9.62672 64.1002 9.5L64.1536 9.45545C64.2837 9.35843 64.4534 9.30992 64.6625 9.30992H66.0928L66.0815 9.21333C66.051 9.02014 65.9746 8.83471 65.8523 8.65702C65.6894 8.42011 65.5046 8.15289 65.2982 7.85537C65.0917 7.55785 64.907 7.20248 64.744 6.78926C64.5811 6.37603 64.4996 5.86639 64.4996 5.26033C64.4996 3.8168 64.9885 2.66253 65.9664 1.79752C66.9444 0.932507 68.3352 0.5 70.1389 0.5C71.3015 0.5 72.2659 0.687328 73.0319 1.06198C73.798 1.43664 74.3711 1.93526 74.7514 2.55785C75.1317 3.18044 75.3219 3.86088 75.3219 4.59917C75.3219 5.4697 75.0964 6.12259 74.6455 6.55785C74.1946 6.99311 73.616 7.21074 72.9097 7.21074C72.1273 7.21074 71.4971 6.9573 71.019 6.45041C70.5409 5.94353 70.3019 5.27135 70.3019 4.43388V2.96281C70.3019 2.57713 70.2258 2.29339 70.0737 2.11157C69.9216 1.92975 69.688 1.83884 69.3729 1.83884C68.9708 1.83884 68.6666 1.97658 68.4601 2.25207C68.2537 2.52755 68.1505 2.92424 68.1505 3.44215C68.1505 3.97107 68.2727 4.46694 68.5172 4.92975C68.7617 5.39256 69.0632 5.82507 69.4218 6.22727C69.7803 6.62948 70.1389 7.01515 70.4975 7.3843C70.856 7.75344 71.1576 8.11708 71.402 8.47521L71.4717 8.58256C71.6037 8.79711 71.6918 9.01066 71.7358 9.22322L71.7507 9.30992H74.1647C74.4146 9.30992 74.6075 9.36226 74.7433 9.46694C74.8791 9.57162 74.947 9.73416 74.947 9.95455C74.947 10.2851 74.8058 10.5551 74.5232 10.7645C74.2407 10.9738 73.7952 11.0785 73.1868 11.0785H72.0295V21.376C72.0295 21.6846 72.0757 21.9215 72.1681 22.0868C72.2604 22.2521 72.4098 22.3512 72.6163 22.3843L74.018 22.5992C74.2679 22.6322 74.4526 22.7121 74.5721 22.8388C74.6917 22.9656 74.7514 23.1391 74.7514 23.3595ZM42.6593 23.7397C41.6814 24.2135 40.5405 24.4504 39.2366 24.4504C37.8567 24.4504 36.6207 24.1584 35.5287 23.5744C34.4367 22.9904 33.5755 22.1446 32.9453 21.0372C32.3151 19.9298 32 18.5826 32 16.9959C32 15.4642 32.3287 14.095 32.9861 12.8884C33.6434 11.6818 34.5589 10.7287 35.7324 10.0289C36.9059 9.3292 38.275 8.97934 39.8397 8.97934C41.1762 8.97934 42.3035 9.17769 43.2216 9.57438C44.1398 9.97107 44.8406 10.5083 45.3242 11.186C45.8077 11.8636 46.0495 12.6212 46.0495 13.4587C46.0495 14.3402 45.7968 15.0317 45.2916 15.5331C44.7863 16.0344 44.099 16.2851 43.2298 16.2851C42.3388 16.2851 41.6624 16.0289 41.2006 15.5165C40.7388 15.0041 40.5079 14.3017 40.5079 13.4091V12.3512C40.5079 11.8113 40.4101 11.4036 40.2145 11.1281C40.0189 10.8526 39.7419 10.7149 39.3833 10.7149C39.0247 10.7149 38.7015 10.8609 38.4135 11.1529C38.1256 11.4449 37.9028 11.8829 37.7453 12.4669C37.5877 13.051 37.509 13.7727 37.509 14.6322C37.509 15.8664 37.691 16.9022 38.055 17.7397C38.419 18.5771 38.9161 19.2052 39.5463 19.624C40.1765 20.0427 40.8936 20.2521 41.6977 20.2521C42.5018 20.2521 43.1755 20.1336 43.7187 19.8967C44.262 19.6598 44.6804 19.2603 44.9737 18.6983C45.1367 18.5441 45.2644 18.4449 45.3568 18.4008C45.4491 18.3567 45.5388 18.3347 45.6257 18.3347C45.7344 18.3457 45.824 18.3981 45.8946 18.4917C45.9652 18.5854 45.9951 18.7314 45.9843 18.9298C45.8973 20.0096 45.5659 20.9628 44.99 21.7893C44.4142 22.6157 43.6373 23.2658 42.6593 23.7397ZM59.2269 23.4091C58.0045 24.0813 56.5838 24.4174 54.9648 24.4174C53.3893 24.4174 52.0066 24.0895 50.8168 23.4339C49.627 22.7782 48.7007 21.8719 48.0379 20.7149C47.3751 19.5579 47.0437 18.219 47.0437 16.6983C47.0437 15.2438 47.3914 13.9353 48.0868 12.7727C48.7822 11.6102 49.7438 10.6873 50.9717 10.0041C52.1995 9.32094 53.612 8.97934 55.2093 8.97934C56.7957 8.97934 58.1811 9.30992 59.3655 9.97107C60.5498 10.6322 61.4734 11.5468 62.1362 12.7149C62.7991 13.8829 63.1305 15.2328 63.1305 16.7645C63.1305 18.219 62.7855 19.522 62.0955 20.6736C61.4055 21.8251 60.4493 22.7369 59.2269 23.4091ZM56.2035 22.6983C55.8667 22.7645 55.538 22.6157 55.2175 22.2521C54.8969 21.8884 54.5927 21.2769 54.3047 20.4174C54.0168 19.5579 53.7424 18.4284 53.4817 17.0289C53.2317 15.6295 53.0905 14.478 53.0579 13.5744C53.0253 12.6708 53.0905 11.9876 53.2535 11.5248C53.4165 11.062 53.6664 10.792 54.0032 10.7149C54.3401 10.6488 54.6687 10.7975 54.9893 11.1612C55.3098 11.5248 55.6168 12.1364 55.9102 12.9959C56.2035 13.8554 56.4806 14.9848 56.7414 16.3843C57.0022 17.7837 57.1461 18.938 57.1733 19.8471C57.2005 20.7562 57.1298 21.4421 56.9614 21.905C56.793 22.3678 56.5404 22.6322 56.2035 22.6983ZM85.3619 24.1198C85.8726 24.1198 86.1279 23.8664 86.1279 23.3595C86.1279 23.1391 86.0681 22.9656 85.9486 22.8388C85.8291 22.7121 85.6444 22.6322 85.3945 22.5992L83.9928 22.3843C83.7863 22.3512 83.6369 22.2521 83.5446 22.0868C83.4522 21.9215 83.406 21.6846 83.406 21.376V11.0785H84.5632C85.1717 11.0785 85.6172 10.9738 85.8997 10.7645C86.1822 10.5551 86.3235 10.2851 86.3235 9.95455C86.3235 9.73416 86.2556 9.57162 86.1198 9.46694C85.9839 9.36226 85.7911 9.30992 85.5411 9.30992H83.1271L83.1122 9.22322C83.0682 9.01066 82.9802 8.79711 82.8482 8.58256L82.7785 8.47521C82.534 8.11708 82.2325 7.75344 81.8739 7.3843C81.5154 7.01515 81.1568 6.62948 80.7982 6.22727C80.4397 5.82507 80.1381 5.39256 79.8937 4.92975C79.6492 4.46694 79.5269 3.97107 79.5269 3.44215C79.5269 2.92424 79.6302 2.52755 79.8366 2.25207C80.0431 1.97658 80.3473 1.83884 80.7493 1.83884C81.0644 1.83884 81.2981 1.92975 81.4502 2.11157C81.6023 2.29339 81.6784 2.57713 81.6784 2.96281V4.43388C81.6784 5.27135 81.9174 5.94353 82.3955 6.45041C82.8736 6.9573 83.5038 7.21074 84.2862 7.21074C84.9924 7.21074 85.571 6.99311 86.022 6.55785C86.4729 6.12259 86.6984 5.4697 86.6984 4.59917C86.6984 3.86088 86.5082 3.18044 86.1279 2.55785C85.7476 1.93526 85.1744 1.43664 84.4084 1.06198C83.6424 0.687328 82.678 0.5 81.5154 0.5C79.7117 0.5 78.3208 0.932507 77.3429 1.79752C76.365 2.66253 75.876 3.8168 75.876 5.26033C75.876 5.86639 75.9575 6.37603 76.1205 6.78926C76.2835 7.20248 76.4682 7.55785 76.6747 7.85537C76.8811 8.15289 77.0658 8.42011 77.2288 8.65702C77.3511 8.83471 77.4275 9.02014 77.458 9.21333L77.4692 9.30992H76.039C75.8299 9.30992 75.6602 9.35843 75.5301 9.45545L75.4767 9.5C75.3409 9.62672 75.273 9.78926 75.273 9.9876C75.273 10.186 75.3273 10.354 75.436 10.4917C75.5446 10.6295 75.7239 10.759 75.9738 10.8802L76.9192 11.1942C77.1256 11.2824 77.2669 11.3788 77.3429 11.4835C77.419 11.5882 77.457 11.7176 77.457 11.8719V21.4256C77.457 21.7121 77.4081 21.9325 77.3103 22.0868C77.2125 22.241 77.0767 22.3457 76.9029 22.4008L76.202 22.6157C76.0064 22.6928 75.8625 22.792 75.7701 22.9132C75.6777 23.0344 75.6316 23.1942 75.6316 23.3926C75.6316 23.624 75.6995 23.803 75.8353 23.9298C75.9711 24.0565 76.1477 24.1198 76.365 24.1198H85.3619ZM98.1237 23.6405C97.0697 24.1804 95.8528 24.4504 94.4728 24.4504C92.9516 24.4504 91.6151 24.1336 90.4633 23.5C89.3116 22.8664 88.4124 21.9793 87.7659 20.8388C87.1194 19.6983 86.7961 18.3788 86.7961 16.8802C86.7961 15.3044 87.1085 13.9242 87.7333 12.7397C88.3581 11.5551 89.2627 10.6322 90.447 9.97107C91.6314 9.30992 93.0548 8.97934 94.7173 8.97934C96.1299 8.97934 97.3468 9.25758 98.3682 9.81405C99.3896 10.3705 100.175 11.1253 100.723 12.0785C101.272 13.0317 101.546 14.0923 101.546 15.2603C101.546 15.7672 101.411 16.1667 101.139 16.4587L101.074 16.5235C100.806 16.7723 100.437 16.8967 99.9655 16.8967H92.5147L92.5307 16.9729C92.7284 17.8804 93.0661 18.6071 93.5438 19.1529C94.3587 20.084 95.4453 20.5496 96.8035 20.5496C97.6728 20.5496 98.4416 20.3512 99.1098 19.9545C99.778 19.5578 100.226 19.0069 100.454 18.3017C100.585 18.1584 100.702 18.062 100.805 18.0124C100.908 17.9628 100.998 17.938 101.074 17.938C101.182 17.938 101.275 17.9821 101.351 18.0702C101.427 18.1584 101.465 18.3072 101.465 18.5165C101.465 19.5964 101.172 20.5854 100.585 21.4835C99.9981 22.3815 99.1777 23.1005 98.1237 23.6405ZM92.3447 15.5717C92.3291 15.3181 92.3214 15.0546 92.3214 14.781C92.3214 13.7452 92.3975 12.9298 92.5496 12.3347C92.7017 11.7397 92.8973 11.3182 93.1363 11.0702C93.3754 10.8223 93.6416 10.6983 93.935 10.6983C94.3153 10.6983 94.6711 11.0234 95.0025 11.6736C95.3339 12.3237 95.4996 13.4036 95.4996 14.9132C95.4996 15.376 95.2932 15.6074 94.8803 15.6074H92.3467L92.3447 15.5717ZM113.705 23.6405C112.651 24.1804 111.434 24.4504 110.054 24.4504C108.533 24.4504 107.197 24.1336 106.045 23.5C104.893 22.8664 103.994 21.9793 103.347 20.8388C102.701 19.6983 102.378 18.3788 102.378 16.8802C102.378 15.3044 102.69 13.9242 103.315 12.7397C103.94 11.5551 104.844 10.6322 106.029 9.97107C107.213 9.30992 108.636 8.97934 110.299 8.97934C111.711 8.97934 112.928 9.25758 113.95 9.81405C114.971 10.3705 115.756 11.1253 116.305 12.0785C116.854 13.0317 117.128 14.0923 117.128 15.2603C117.128 15.7672 116.992 16.1667 116.721 16.4587L116.656 16.5235C116.388 16.7723 116.018 16.8967 115.547 16.8967H108.096L108.112 16.9729C108.31 17.8804 108.648 18.6071 109.125 19.1529C109.94 20.084 111.027 20.5496 112.385 20.5496C113.254 20.5496 114.023 20.3512 114.691 19.9545C115.36 19.5578 115.808 19.0069 116.036 18.3017C116.166 18.1584 116.283 18.062 116.386 18.0124C116.49 17.9628 116.579 17.938 116.655 17.938C116.764 17.938 116.856 17.9821 116.932 18.0702C117.008 18.1584 117.046 18.3072 117.046 18.5165C117.046 19.5964 116.753 20.5854 116.166 21.4835C115.58 22.3815 114.759 23.1005 113.705 23.6405ZM107.926 15.5717C107.911 15.3181 107.903 15.0546 107.903 14.781C107.903 13.7452 107.979 12.9298 108.131 12.3347C108.283 11.7397 108.479 11.3182 108.718 11.0702C108.957 10.8223 109.223 10.6983 109.517 10.6983C109.897 10.6983 110.253 11.0234 110.584 11.6736C110.915 12.3237 111.081 13.4036 111.081 14.9132C111.081 15.376 110.875 15.6074 110.462 15.6074H107.928L107.926 15.5717ZM127.6 23.9132C127.464 24.051 127.266 24.1198 127.005 24.1198H118.856C118.617 24.1198 118.429 24.0537 118.293 23.9215C118.158 23.7893 118.09 23.6074 118.09 23.376C118.09 23.1997 118.13 23.0537 118.212 22.938C118.293 22.8223 118.405 22.7149 118.546 22.6157L118.921 22.4669C119.062 22.4008 119.16 22.2961 119.214 22.1529C119.269 22.0096 119.296 21.7727 119.296 21.4421V13.0455C119.296 12.781 119.266 12.5909 119.206 12.4752C119.146 12.3595 119.046 12.2686 118.905 12.2025L118.481 12.1529C118.329 12.0647 118.217 11.9711 118.147 11.8719C118.076 11.7727 118.041 11.646 118.041 11.4917C118.041 11.3154 118.095 11.1584 118.204 11.0207C118.312 10.8829 118.497 10.7645 118.758 10.6653L123.387 9.32645C123.658 9.21625 123.886 9.13912 124.071 9.09504C124.256 9.05096 124.413 9.02893 124.544 9.02893C124.729 9.02893 124.867 9.09504 124.959 9.22727L124.989 9.27523C125.065 9.41344 125.118 9.63437 125.147 9.93802L125.271 12.5064L125.299 12.4116C125.354 12.2327 125.415 12.0611 125.481 11.8967C125.878 10.9105 126.402 10.1777 127.054 9.69835C127.706 9.21901 128.418 8.97934 129.189 8.97934C130.123 8.97934 130.841 9.29339 131.34 9.92149C131.84 10.5496 132.09 11.5028 132.09 12.781C132.09 14.0482 131.829 14.9793 131.308 15.5744C130.786 16.1694 130.113 16.4669 129.287 16.4669C128.483 16.4669 127.888 16.2631 127.502 15.8554C127.116 15.4477 126.913 14.8691 126.891 14.1198L126.875 13.4587C126.864 13.2052 126.815 13.0069 126.728 12.8636C126.641 12.7204 126.5 12.6488 126.304 12.6488C126.109 12.6488 125.937 12.7507 125.791 12.9545C125.644 13.1584 125.533 13.4697 125.457 13.8884C125.381 14.3072 125.343 14.8416 125.343 15.4917V21.3099C125.343 21.6185 125.391 21.8636 125.489 22.0455C125.587 22.2273 125.739 22.3402 125.946 22.3843L127.168 22.6322C127.396 22.6653 127.559 22.7507 127.657 22.8884C127.755 23.0262 127.804 23.1887 127.804 23.376C127.804 23.5964 127.736 23.7755 127.6 23.9132ZM140.631 24.4174C142.25 24.4174 143.67 24.0813 144.893 23.4091C146.115 22.7369 147.071 21.8251 147.761 20.6736C148.451 19.522 148.796 18.219 148.796 16.7645C148.796 15.2328 148.465 13.8829 147.802 12.7149C147.139 11.5468 146.216 10.6322 145.031 9.97107C143.847 9.30992 142.462 8.97934 140.875 8.97934C139.278 8.97934 137.865 9.32094 136.637 10.0041C135.41 10.6873 134.448 11.6102 133.753 12.7727C133.057 13.9353 132.71 15.2438 132.71 16.6983C132.71 18.219 133.041 19.5579 133.704 20.7149C134.367 21.8719 135.293 22.7782 136.483 23.4339C137.672 24.0895 139.055 24.4174 140.631 24.4174ZM140.883 22.2521C141.204 22.6157 141.533 22.7645 141.869 22.6983C142.206 22.6322 142.459 22.3678 142.627 21.905C142.796 21.4421 142.866 20.7562 142.839 19.8471C142.812 18.938 142.668 17.7837 142.407 16.3843C142.146 14.9848 141.869 13.8554 141.576 12.9959C141.283 12.1364 140.976 11.5248 140.655 11.1612C140.335 10.7975 140.006 10.6488 139.669 10.7149C139.332 10.792 139.082 11.062 138.919 11.5248C138.756 11.9876 138.691 12.6708 138.724 13.5744C138.756 14.478 138.898 15.6295 139.147 17.0289C139.408 18.4284 139.683 19.5579 139.971 20.4174C140.259 21.2769 140.563 21.8884 140.883 22.2521ZM161.721 24.4504C162.634 24.4504 163.384 24.2824 163.97 23.9463C164.557 23.6102 164.994 23.2107 165.282 22.7479C165.57 22.2851 165.714 21.8609 165.714 21.4752C165.714 21.3099 165.679 21.1722 165.608 21.062C165.538 20.9518 165.443 20.8967 165.323 20.8967C165.269 20.8967 165.22 20.9077 165.176 20.9298C165.133 20.9518 165.095 20.9848 165.062 21.0289C165.008 21.2273 164.924 21.365 164.81 21.4421C164.696 21.5193 164.573 21.5578 164.443 21.5578C164.258 21.5578 164.12 21.4945 164.027 21.3678C163.935 21.241 163.889 21.073 163.889 20.8636V13.5579C163.889 12.1033 163.397 10.9766 162.414 10.1777C161.43 9.37879 159.89 8.97934 157.793 8.97934C156.163 8.97934 154.802 9.1832 153.71 9.59091C152.618 9.99862 151.798 10.5193 151.249 11.1529C150.701 11.7865 150.426 12.4339 150.426 13.095C150.426 13.8003 150.63 14.3375 151.037 14.7066C151.445 15.0758 152.034 15.2603 152.806 15.2603C153.751 15.2603 154.495 15.0041 155.039 14.4917C155.582 13.9793 155.854 13.3154 155.854 12.5V11.2438C155.854 10.9353 155.949 10.6956 156.139 10.5248C156.329 10.354 156.565 10.2686 156.848 10.2686C157.152 10.2686 157.394 10.3815 157.573 10.6074C157.752 10.8333 157.842 11.1391 157.842 11.5248L157.842 16.343L157.755 16.3241C157.493 16.2735 157.189 16.2446 156.844 16.2373L156.669 16.2355C154.332 16.2355 152.591 16.6322 151.445 17.4256C150.299 18.219 149.725 19.3264 149.725 20.7479C149.725 21.8278 150.119 22.7149 150.907 23.4091C151.695 24.1033 152.741 24.4504 154.044 24.4504C155.022 24.4504 155.935 24.2493 156.783 23.8471C157.418 23.5455 157.935 23.1493 158.332 22.6586L158.355 22.6299L158.379 22.7039C158.504 23.0612 158.733 23.3813 159.067 23.6642L159.17 23.7479C159.773 24.2163 160.624 24.4504 161.721 24.4504ZM156.106 21.3347C156.372 21.6928 156.723 21.8719 157.158 21.8719L157.251 21.8687C157.436 21.8558 157.615 21.8041 157.789 21.7137L157.842 21.6837V17.4422L157.761 17.4174C157.576 17.3678 157.359 17.343 157.109 17.343C156.685 17.343 156.345 17.5413 156.09 17.938C155.835 18.3347 155.707 18.9187 155.707 19.6901C155.707 20.4284 155.84 20.9766 156.106 21.3347ZM173.212 24.5C175.146 24.5 176.629 24.0537 177.661 23.1612C178.694 22.2686 179.21 21.051 179.21 19.5083C179.21 18.5716 179.036 17.7507 178.688 17.0455C178.34 16.3402 177.732 15.7149 176.863 15.1694C175.993 14.624 174.771 14.1088 173.195 13.624C172.609 13.4366 172.155 13.2466 171.834 13.0537C171.514 12.8609 171.294 12.6543 171.174 12.4339C171.055 12.2135 170.995 11.9766 170.995 11.7231C170.995 11.3485 171.131 11.0455 171.403 10.814C171.674 10.5826 172.076 10.4669 172.609 10.4669C173.348 10.4669 174.046 10.7149 174.703 11.2107C175.36 11.7066 176.086 12.5551 176.879 13.7562C177.085 14.0096 177.292 14.1942 177.498 14.3099C177.705 14.4256 177.9 14.4614 178.085 14.4174C178.313 14.3512 178.454 14.1997 178.509 13.9628C178.563 13.7259 178.552 13.3871 178.476 12.9463L178.052 9.90496C178.009 9.5854 177.927 9.3595 177.808 9.22727C177.688 9.09504 177.531 9.02893 177.335 9.02893C177.161 9.02893 176.944 9.08953 176.683 9.21074C176.423 9.33196 176.164 9.45592 175.909 9.58264C175.654 9.70937 175.461 9.77273 175.331 9.77273C175.211 9.77273 175.034 9.70661 174.801 9.57438C174.567 9.44215 174.239 9.30992 173.815 9.17769C173.391 9.04545 172.842 8.97934 172.169 8.97934C171.049 8.97934 170.042 9.1832 169.145 9.59091C168.249 9.99862 167.542 10.5799 167.026 11.3347C166.51 12.0895 166.252 12.9904 166.252 14.0372C166.252 14.9628 166.445 15.7727 166.831 16.4669C167.217 17.1612 167.806 17.7562 168.599 18.2521C169.392 18.7479 170.392 19.1501 171.598 19.4587C172.38 19.668 172.981 19.8802 173.399 20.095C173.817 20.3099 174.105 20.5441 174.263 20.7975C174.421 21.051 174.499 21.332 174.499 21.6405C174.499 22.0482 174.363 22.3843 174.092 22.6488C173.82 22.9132 173.407 23.0455 172.853 23.0455C172.332 23.0455 171.834 22.9325 171.362 22.7066C170.889 22.4807 170.403 22.0923 169.903 21.5413C169.403 20.9904 168.844 20.2355 168.224 19.2769C168.04 19.0234 167.83 18.8471 167.597 18.7479C167.363 18.6488 167.127 18.6543 166.888 18.7645C166.66 18.8526 166.513 19.0399 166.448 19.3264C166.383 19.6129 166.399 19.9656 166.497 20.3843L167.002 23.6736C167.078 24.0041 167.187 24.2245 167.328 24.3347C167.469 24.4449 167.621 24.5 167.784 24.5C167.969 24.5 168.194 24.4394 168.461 24.3182L169.259 23.9545C169.525 23.8333 169.74 23.7727 169.903 23.7727C170.066 23.7727 170.281 23.8333 170.547 23.9545C170.813 24.0758 171.161 24.197 171.59 24.3182C172.019 24.4394 172.56 24.5 173.212 24.5ZM188.663 23.8802C187.946 24.2603 187.098 24.4504 186.12 24.4504C184.469 24.4504 183.227 24.0482 182.396 23.2438C181.565 22.4394 181.149 21.1722 181.149 19.4422V11.9711C181.149 11.7397 181.127 11.5634 181.084 11.4421C181.041 11.3209 180.932 11.2218 180.758 11.1446L179.992 10.8967C179.807 10.8085 179.688 10.7011 179.633 10.5744C179.579 10.4477 179.552 10.2906 179.552 10.1033C179.552 9.8719 179.633 9.68182 179.796 9.53306C179.959 9.3843 180.16 9.30992 180.399 9.30992H181.198C181.296 9.30992 181.399 9.27135 181.508 9.19421C181.616 9.11708 181.763 8.96281 181.948 8.73141L184.963 6.20248C185.18 5.93802 185.398 5.73691 185.615 5.59917C185.832 5.46143 186.05 5.39256 186.267 5.39256C186.517 5.39256 186.712 5.4697 186.854 5.62397L186.898 5.67866C187.01 5.8332 187.066 6.05739 187.066 6.35124L187.065 9.30992H190.472C190.711 9.30992 190.896 9.36226 191.026 9.46694C191.157 9.57163 191.222 9.73416 191.222 9.95455C191.222 10.2631 191.086 10.5275 190.814 10.7479L190.754 10.7935C190.48 10.9835 190.065 11.0785 189.51 11.0785H187.065L187.066 18.6157C187.066 19.4421 187.204 20.0537 187.481 20.4504C187.758 20.8471 188.163 21.0455 188.695 21.0455C188.924 21.0455 189.136 20.9959 189.331 20.8967C189.527 20.7975 189.703 20.668 189.861 20.5083C190.018 20.3485 190.168 20.1694 190.309 19.9711C190.45 19.7727 190.586 19.5744 190.717 19.376C190.825 19.332 190.92 19.3512 191.002 19.4339C191.083 19.5165 191.119 19.6846 191.108 19.938C191.032 20.8306 190.784 21.6157 190.366 22.2934C189.948 22.9711 189.38 23.5 188.663 23.8802ZM199.339 24.4504C200.718 24.4504 201.935 24.1804 202.989 23.6405C204.043 23.1005 204.864 22.3815 205.451 21.4835C206.037 20.5854 206.331 19.5964 206.331 18.5165C206.331 18.3072 206.293 18.1584 206.217 18.0702C206.14 17.9821 206.048 17.938 205.939 17.938C205.863 17.938 205.774 17.9628 205.671 18.0124C205.567 18.062 205.451 18.1584 205.32 18.3017C205.092 19.0069 204.644 19.5578 203.975 19.9545C203.307 20.3512 202.538 20.5496 201.669 20.5496C200.311 20.5496 199.224 20.084 198.409 19.1529C197.932 18.6071 197.594 17.8804 197.396 16.9729L197.38 16.8967H204.831C205.303 16.8967 205.672 16.7723 205.94 16.5235L206.005 16.4587C206.276 16.1667 206.412 15.7672 206.412 15.2603C206.412 14.0923 206.138 13.0317 205.589 12.0785C205.04 11.1253 204.255 10.3705 203.234 9.81405C202.212 9.25758 200.996 8.97934 199.583 8.97934C197.921 8.97934 196.497 9.30992 195.313 9.97107C194.128 10.6322 193.224 11.5551 192.599 12.7397C191.974 13.9242 191.662 15.3044 191.662 16.8802C191.662 18.3788 191.985 19.6983 192.632 20.8388C193.278 21.9793 194.177 22.8664 195.329 23.5C196.481 24.1336 197.817 24.4504 199.339 24.4504ZM197.187 14.781C197.187 15.0546 197.195 15.3181 197.21 15.5717L197.212 15.6074H199.746C200.159 15.6074 200.365 15.376 200.365 14.9132C200.365 13.4036 200.2 12.3237 199.868 11.6736C199.537 11.0234 199.181 10.6983 198.801 10.6983C198.507 10.6983 198.241 10.8223 198.002 11.0702C197.763 11.3182 197.567 11.7397 197.415 12.3347C197.263 12.9298 197.187 13.7452 197.187 14.781ZM216.289 24.1198C216.55 24.1198 216.748 24.051 216.884 23.9132C217.02 23.7755 217.088 23.5964 217.088 23.376C217.088 23.1887 217.039 23.0262 216.941 22.8884C216.843 22.7507 216.68 22.6653 216.452 22.6322L215.23 22.3843C215.023 22.3402 214.871 22.2273 214.773 22.0455C214.676 21.8636 214.627 21.6185 214.627 21.3099V15.4917C214.627 14.8416 214.665 14.3072 214.741 13.8884C214.817 13.4697 214.928 13.1584 215.075 12.9545C215.222 12.7507 215.393 12.6488 215.588 12.6488C215.784 12.6488 215.925 12.7204 216.012 12.8636C216.099 13.0069 216.148 13.2052 216.159 13.4587L216.175 14.1198C216.197 14.8691 216.4 15.4477 216.786 15.8554C217.172 16.2631 217.767 16.4669 218.571 16.4669C219.397 16.4669 220.07 16.1694 220.592 15.5744C221.114 14.9793 221.374 14.0482 221.374 12.781C221.374 11.5028 221.124 10.5496 220.625 9.92149C220.125 9.29339 219.408 8.97934 218.473 8.97934C217.702 8.97934 216.99 9.21901 216.338 9.69835C215.686 10.1777 215.162 10.9105 214.765 11.8967C214.699 12.0611 214.639 12.2327 214.583 12.4116L214.555 12.5069L214.431 9.93802C214.402 9.63437 214.35 9.41344 214.273 9.27523L214.244 9.22727C214.151 9.09504 214.013 9.02893 213.828 9.02893C213.698 9.02893 213.54 9.05096 213.355 9.09504C213.171 9.13912 212.942 9.21625 212.671 9.32645L208.042 10.6653C207.781 10.7645 207.596 10.8829 207.488 11.0207C207.379 11.1584 207.325 11.3154 207.325 11.4917C207.325 11.646 207.36 11.7727 207.431 11.8719C207.501 11.9711 207.613 12.0647 207.765 12.1529L208.189 12.2025C208.33 12.2686 208.43 12.3595 208.49 12.4752C208.55 12.5909 208.58 12.781 208.58 13.0455V21.4421C208.58 21.7727 208.553 22.0096 208.498 22.1529C208.444 22.2961 208.346 22.4008 208.205 22.4669L207.83 22.6157C207.689 22.7149 207.577 22.8223 207.496 22.938C207.414 23.0537 207.374 23.1997 207.374 23.376C207.374 23.6074 207.442 23.7893 207.577 23.9215C207.713 24.0537 207.901 24.1198 208.14 24.1198H216.289ZM233.452 23.1612C232.419 24.0537 230.936 24.5 229.002 24.5C228.35 24.5 227.81 24.4394 227.38 24.3182C226.951 24.197 226.603 24.0758 226.337 23.9545C226.071 23.8333 225.856 23.7727 225.693 23.7727C225.53 23.7727 225.316 23.8333 225.05 23.9545L224.251 24.3182C223.985 24.4394 223.759 24.5 223.575 24.5C223.412 24.5 223.26 24.4449 223.118 24.3347C222.977 24.2245 222.868 24.0041 222.792 23.6736L222.287 20.3843C222.189 19.9656 222.173 19.6129 222.238 19.3264C222.303 19.0399 222.45 18.8526 222.678 18.7645C222.917 18.6543 223.154 18.6488 223.387 18.7479C223.621 18.8471 223.83 19.0234 224.015 19.2769C224.634 20.2355 225.194 20.9904 225.693 21.5413C226.193 22.0923 226.68 22.4807 227.152 22.7066C227.625 22.9325 228.122 23.0455 228.644 23.0455C229.198 23.0455 229.611 22.9132 229.882 22.6488C230.154 22.3843 230.29 22.0482 230.29 21.6405C230.29 21.332 230.211 21.051 230.053 20.7975C229.896 20.5441 229.608 20.3099 229.19 20.095C228.771 19.8802 228.171 19.668 227.389 19.4587C226.182 19.1501 225.183 18.7479 224.39 18.2521C223.596 17.7562 223.007 17.1612 222.621 16.4669C222.235 15.7727 222.043 14.9628 222.043 14.0372C222.043 12.9904 222.301 12.0895 222.817 11.3347C223.333 10.5799 224.039 9.99862 224.936 9.59091C225.832 9.1832 226.84 8.97934 227.959 8.97934C228.633 8.97934 229.181 9.04545 229.605 9.17769C230.029 9.30992 230.358 9.44215 230.591 9.57438C230.825 9.70661 231.001 9.77273 231.121 9.77273C231.251 9.77273 231.444 9.70937 231.7 9.58264C231.955 9.45592 232.213 9.33196 232.474 9.21074C232.734 9.08953 232.952 9.02893 233.126 9.02893C233.321 9.02893 233.479 9.09504 233.598 9.22727C233.718 9.3595 233.799 9.5854 233.843 9.90496L234.267 12.9463C234.343 13.3871 234.353 13.7259 234.299 13.9628C234.245 14.1997 234.104 14.3512 233.875 14.4174C233.691 14.4614 233.495 14.4256 233.289 14.3099C233.082 14.1942 232.876 14.0096 232.669 13.7562C231.876 12.5551 231.151 11.7066 230.493 11.2107C229.836 10.7149 229.138 10.4669 228.399 10.4669C227.867 10.4669 227.465 10.5826 227.193 10.814C226.921 11.0455 226.785 11.3485 226.785 11.7231C226.785 11.9766 226.845 12.2135 226.965 12.4339C227.084 12.6543 227.304 12.8609 227.625 13.0537C227.945 13.2466 228.399 13.4366 228.986 13.624C230.561 14.1088 231.784 14.624 232.653 15.1694C233.522 15.7149 234.131 16.3402 234.478 17.0455C234.826 17.7507 235 18.5716 235 19.5083C235 21.051 234.484 22.2686 233.452 23.1612Z" fill="#333D4B"/>
<path fill-rule="evenodd" clip-rule="evenodd" d="M13.4893 4.50268C9.97493 0.991126 4.76554 0.485619 1.87661 3.37766C-1.01383 6.26821 -0.508336 11.4778 3.00008 14.9908C3.93606 15.9269 5.01454 16.6424 6.15301 17.1554C6.52651 14.9848 7.59748 12.8983 9.22344 11.1853C8.68496 10.9933 8.13297 10.8313 7.55698 10.6738C4.14606 9.73776 2.4511 6.89222 2.05511 3.55617C2.38262 3.95002 2.68082 4.36313 2.97814 4.77503C3.555 5.5742 4.12855 6.36879 4.90654 7.00922C6.11679 8.00576 7.44522 8.39045 8.89855 8.8113C8.95466 8.82755 9.01096 8.84385 9.06745 8.86025C9.75593 9.05975 10.3544 9.35525 10.9034 9.70026C12.3464 8.64574 13.9738 7.94373 15.6538 7.65423C15.1423 6.51571 14.4253 5.43869 13.4893 4.50268ZM7.54648 17.9894C7.76998 15.8159 8.82296 13.6903 10.5104 12.0028C14.0248 8.49124 19.2342 7.98423 22.1232 10.8778C25.0136 13.7683 24.5096 18.9779 20.9967 22.491C19.3092 24.1785 17.1838 25.2315 15.0103 25.4565C14.7208 25.485 14.4343 25.5 14.1538 25.5C12.2849 25.5 10.6154 24.8445 9.38544 23.6145C7.96947 22.2 7.31549 20.2019 7.54648 17.9894ZM12.6869 19.7729C13.8388 18.8939 15.0853 18.5459 16.4413 18.1754C19.8522 17.2394 21.5457 14.3938 21.9432 11.0578C21.6184 11.4494 21.3224 11.8598 21.0273 12.2688C20.4487 13.0709 19.8735 13.8681 19.0917 14.5108C17.8778 15.509 16.5463 15.8943 15.0864 16.3168L14.9308 16.3619C11.5934 17.3309 9.94343 20.1524 9.56244 23.436C9.89121 23.041 10.1924 22.6309 10.492 22.2229C11.1423 21.3374 11.7852 20.462 12.6869 19.7729Z" fill="#0E8684"/>
</svg>
