<?xml version="1.0" encoding="UTF-8"?>
<svg id="Layer_1" data-name="Layer 1" xmlns="http://www.w3.org/2000/svg" viewBox="0 0 512 512">
  <defs>
    <style>
      .cls-1 {
        fill: #fefcf7;
      }

      .cls-2 {
        fill: #0e8784;
        fill-rule: evenodd;
      }
    </style>
  </defs>
  <path class="cls-1" d="m452,512H60c-33.14,0-60-26.86-60-60V60C0,26.86,26.86,0,60,0h392c33.14,0,60,26.86,60,60v392c0,33.14-26.86,60-60,60Z"/>
  <path class="cls-2" d="m276.48,132.29c-48.32-48.28-119.95-55.23-159.67-15.47-39.74,39.75-32.79,111.38,15.45,159.68,12.87,12.87,27.7,22.71,43.35,29.76,5.14-29.85,19.86-58.54,42.22-82.09-7.4-2.64-14.99-4.87-22.91-7.03-46.9-12.87-70.21-52-75.65-97.87,4.5,5.42,8.6,11.1,12.69,16.76,7.93,10.99,15.82,21.91,26.52,30.72,16.64,13.7,34.91,18.99,54.89,24.78.77.22,1.55.45,2.32.67,9.47,2.74,17.7,6.81,25.24,11.55,19.84-14.5,42.22-24.15,65.32-28.13-7.03-15.65-16.89-30.46-29.76-43.33Zm-81.71,185.44c3.07-29.89,17.55-59.11,40.75-82.32,48.32-48.28,119.95-55.26,159.68-15.47,39.74,39.74,32.81,111.38-15.49,159.68-23.2,23.2-52.43,37.68-82.31,40.78-3.98.39-7.92.6-11.78.6-25.7,0-48.65-9.01-65.56-25.93-19.47-19.45-28.46-46.92-25.29-77.35Zm70.68,24.52c15.84-12.09,32.98-16.87,51.62-21.97,46.9-12.87,70.19-52,75.65-97.87-4.47,5.39-8.54,11.03-12.59,16.65-7.96,11.03-15.86,21.99-26.61,30.83-16.69,13.73-35,19.02-55.07,24.83l-2.14.62c-45.89,13.32-68.58,52.12-73.81,97.27,4.52-5.43,8.66-11.07,12.78-16.68,8.94-12.18,17.78-24.21,30.18-33.69Z"/>
</svg>