<?xml version="1.0" standalone="no"?>
<!DOCTYPE svg PUBLIC "-//W3C//DTD SVG 20010904//EN"
 "http://www.w3.org/TR/2001/REC-SVG-20010904/DTD/svg10.dtd">
<svg version="1.0" xmlns="http://www.w3.org/2000/svg"
 width="700.000000pt" height="700.000000pt" viewBox="0 0 700.000000 700.000000"
 preserveAspectRatio="xMidYMid meet">
<metadata>
Created by potrace 1.14, written by Peter Selinger 2001-2017
</metadata>
<g transform="translate(0.000000,700.000000) scale(0.100000,-0.100000)"
fill="#000000" stroke="none">
<path d="M700 6993 c-219 -38 -414 -157 -542 -331 -49 -66 -110 -194 -135
-282 -17 -62 -18 -181 -18 -2865 0 -1540 4 -2822 9 -2850 18 -104 93 -266 164
-355 126 -156 316 -267 511 -300 34 -5 1148 -8 2846 -7 l2790 3 70 22 c96 30
210 86 270 131 161 123 273 297 315 489 19 85 20 162 20 2847 0 2657 -1 2763
-19 2851 -66 320 -308 561 -642 640 -34 8 -5593 15 -5639 7z"/>
</g>
</svg>
